<?xml version="1.0" standalone="no"?>
<!DOCTYPE svg PUBLIC "-//W3C//DTD SVG 20010904//EN"
 "http://www.w3.org/TR/2001/REC-SVG-20010904/DTD/svg10.dtd">
<svg version="1.0" xmlns="http://www.w3.org/2000/svg"
 width="512.000000pt" height="512.000000pt" viewBox="0 0 512.000000 512.000000"
 preserveAspectRatio="xMidYMid meet">
<metadata>
Created by potrace 1.14, written by Peter Selinger 2001-2017
</metadata>
<g transform="translate(0.000000,512.000000) scale(0.100000,-0.100000)"
fill="#000000" stroke="none">
<path d="M1152 4552 c-12 -2 -27 -12 -32 -23 -9 -16 -893 -2656 -905 -2699 -2
-8 -49 -149 -104 -314 -54 -164 -97 -304 -95 -311 3 -7 13 -15 22 -17 9 -2
189 -4 400 -3 210 0 382 -3 382 -7 0 -4 -44 -139 -97 -299 -85 -256 -95 -293
-81 -303 11 -8 454 -11 1671 -11 1643 0 1657 0 1676 20 11 12 219 622 525
1540 278 836 510 1534 516 1550 6 17 24 70 40 118 33 97 36 122 18 134 -7 4
-188 8 -403 8 -214 0 -389 4 -388 8 1 4 36 112 79 240 107 324 113 343 103
358 -7 12 -279 14 -1656 14 -906 0 -1658 -1 -1671 -3z"/>
</g>
</svg>
