<svg xmlns="http://www.w3.org/2000/svg" xmlns:xlink="http://www.w3.org/1999/xlink" width="1000" zoomAndPan="magnify"
  viewBox="0 0 750 219" height="292" preserveAspectRatio="xMidYMid meet" version="1.0">
  <defs>
    <g />
    <clipPath id="5482cfb25a">
      <path
        d="M 98.210938 16.132812 L 130.347656 16.132812 L 130.347656 48.269531 L 98.210938 48.269531 Z M 98.210938 16.132812 "
        clip-rule="nonzero" />
    </clipPath>
    <clipPath id="1d3e57f58c">
      <path
        d="M 114.277344 16.132812 C 105.402344 16.132812 98.210938 23.328125 98.210938 32.203125 C 98.210938 41.078125 105.402344 48.269531 114.277344 48.269531 C 123.152344 48.269531 130.347656 41.078125 130.347656 32.203125 C 130.347656 23.328125 123.152344 16.132812 114.277344 16.132812 "
        clip-rule="nonzero" />
    </clipPath>
    <clipPath id="a470c362e5">
      <path d="M 47.285156 46.589844 L 116 46.589844 L 116 115.398438 L 47.285156 115.398438 Z M 47.285156 46.589844 "
        clip-rule="nonzero" />
    </clipPath>
    <clipPath id="7ec88f6c65">
      <path
        d="M 81.539062 115.144531 C 62.679688 115.144531 47.285156 99.75 47.285156 80.839844 C 47.285156 61.984375 62.679688 46.589844 81.539062 46.589844 C 100.445312 46.589844 115.789062 61.984375 115.789062 80.839844 C 115.839844 99.75 100.445312 115.144531 81.539062 115.144531 Z M 81.539062 65.449219 C 73.078125 65.449219 66.144531 72.378906 66.144531 80.839844 C 66.144531 89.300781 73.078125 96.234375 81.539062 96.234375 C 90 96.234375 96.929688 89.300781 96.929688 80.839844 C 96.929688 72.378906 90.050781 65.449219 81.539062 65.449219 Z M 81.539062 65.449219 "
        clip-rule="nonzero" />
    </clipPath>
  </defs>
  <path fill="#773fdb"
    d="M 211.03125 182.316406 L 163.519531 129.292969 C 156.101562 140.820312 140.929688 155.316406 129.398438 162.734375 L 182.296875 211.011719 C 190.261719 218.980469 203.148438 218.980469 211.074219 211.011719 C 219 203.128906 219 190.242188 211.03125 182.316406 Z M 211.03125 182.316406 "
    fill-opacity="1" fill-rule="nonzero" />
  <path fill="#773fdb"
    d="M 162.757812 81.398438 C 162.757812 36.472656 126.304688 0.0195312 81.378906 0.0195312 C 36.449219 0.0195312 0 36.472656 0 81.398438 C 0 126.328125 36.449219 162.777344 81.378906 162.777344 C 126.304688 162.777344 162.757812 126.328125 162.757812 81.398438 Z M 81.378906 142.433594 C 47.726562 142.433594 20.34375 115.050781 20.34375 81.398438 C 20.34375 47.746094 47.726562 20.367188 81.378906 20.367188 C 115.03125 20.367188 142.410156 47.746094 142.410156 81.398438 C 142.410156 115.050781 115.03125 142.433594 81.378906 142.433594 Z M 81.378906 142.433594 "
    fill-opacity="1" fill-rule="nonzero" />
  <g clip-path="url(#5482cfb25a)">
    <g clip-path="url(#1d3e57f58c)">
      <path fill="#773fdb"
        d="M 98.210938 16.132812 L 130.347656 16.132812 L 130.347656 48.269531 L 98.210938 48.269531 Z M 98.210938 16.132812 "
        fill-opacity="1" fill-rule="nonzero" />
    </g>
  </g>
  <g clip-path="url(#a470c362e5)">
    <g clip-path="url(#7ec88f6c65)">
      <path fill="#773fdb"
        d="M 47.285156 46.589844 L 116.09375 46.589844 L 116.09375 115.398438 L 47.285156 115.398438 Z M 47.285156 46.589844 "
        fill-opacity="1" fill-rule="nonzero" />
    </g>
  </g>
  <g fill="#0c1a62" fill-opacity="1">
    <g transform="translate(199.057741, 82.073837)">
      <g>
        <path
          d="M 45.8125 -11.046875 L 19.609375 -11.046875 L 15.234375 0 L -0.421875 0 L 25.4375 -59.9375 L 41.09375 -59.9375 L 66.359375 0 L 50.09375 0 Z M 41.359375 -22.609375 L 32.796875 -44.78125 L 24.0625 -22.609375 Z M 41.359375 -22.609375 " />
      </g>
    </g>
  </g>
  <g fill="#0c1a62" fill-opacity="1">
    <g transform="translate(271.576498, 82.073837)">
      <g>
        <path
          d="M 61.3125 0 L 47.859375 0 L 20.296875 -36.90625 L 20.296875 0 L 6 0 L 6 -59.9375 L 19.4375 -59.9375 L 47.09375 -22.953125 L 47.09375 -59.9375 L 61.3125 -59.9375 Z M 61.3125 0 " />
      </g>
    </g>
  </g>
  <g fill="#0c1a62" fill-opacity="1">
    <g transform="translate(345.465136, 82.073837)">
      <g>
        <path
          d="M 45.8125 -11.046875 L 19.609375 -11.046875 L 15.234375 0 L -0.421875 0 L 25.4375 -59.9375 L 41.09375 -59.9375 L 66.359375 0 L 50.09375 0 Z M 41.359375 -22.609375 L 32.796875 -44.78125 L 24.0625 -22.609375 Z M 41.359375 -22.609375 " />
      </g>
    </g>
  </g>
  <g fill="#0c1a62" fill-opacity="1">
    <g transform="translate(417.983893, 82.073837)">
      <g>
        <path
          d="M 21.234375 -12.765625 L 46.671875 -12.765625 L 46.671875 0 L 6 0 L 6 -59.9375 L 21.234375 -59.9375 Z M 21.234375 -12.765625 " />
      </g>
    </g>
  </g>
  <g fill="#0c1a62" fill-opacity="1">
    <g transform="translate(472.523045, 82.073837)">
      <g>
        <path d="M 21.234375 0 L 6 0 L 6 -59.9375 L 21.234375 -59.9375 Z M 21.234375 0 " />
      </g>
    </g>
  </g>
  <g fill="#0c1a62" fill-opacity="1">
    <g transform="translate(506.342852, 82.073837)">
      <g>
        <path
          d="M 51.796875 -47.6875 L 33.734375 -47.6875 L 33.734375 0 L 18.5 0 L 18.5 -47.6875 L 0.59375 -47.6875 L 0.59375 -60.015625 L 51.796875 -60.015625 Z M 51.796875 -47.6875 " />
      </g>
    </g>
  </g>
  <g fill="#0c1a62" fill-opacity="1">
    <g transform="translate(565.248498, 82.073837)">
      <g>
        <path d="M 21.234375 0 L 6 0 L 6 -59.9375 L 21.234375 -59.9375 Z M 21.234375 0 " />
      </g>
    </g>
  </g>
  <g fill="#0c1a62" fill-opacity="1">
    <g transform="translate(599.068282, 82.073837)">
      <g>
        <path
          d="M 45.03125 0 L 29.203125 -23.546875 L 21.234375 -14.734375 L 21.234375 0 L 6 0 L 6 -59.9375 L 21.234375 -59.9375 L 21.234375 -34 L 44.1875 -59.9375 L 61.828125 -59.9375 L 39.5625 -35.109375 L 63.28125 0 Z M 45.03125 0 " />
      </g>
    </g>
  </g>
  <g fill="#0c1a62" fill-opacity="1">
    <g transform="translate(669.617856, 82.073837)">
      <g>
        <path
          d="M 45.8125 -11.046875 L 19.609375 -11.046875 L 15.234375 0 L -0.421875 0 L 25.4375 -59.9375 L 41.09375 -59.9375 L 66.359375 0 L 50.09375 0 Z M 41.359375 -22.609375 L 32.796875 -44.78125 L 24.0625 -22.609375 Z M 41.359375 -22.609375 " />
      </g>
    </g>
  </g>
  <g fill="#0c1a62" fill-opacity="1">
    <g transform="translate(586.548886, 141.823898)">
      <g>
        <path
          d="M 28.40625 -28.40625 L 28.40625 -11.9375 C 28.40625 -8.175781 27.238281 -5.191406 24.90625 -2.984375 C 22.582031 -0.773438 19.429688 0.328125 15.453125 0.328125 C 11.453125 0.328125 8.269531 -0.773438 5.90625 -2.984375 C 3.539062 -5.191406 2.359375 -8.175781 2.359375 -11.9375 L 2.359375 -28.40625 L 9.578125 -28.40625 L 9.578125 -11.9375 C 9.578125 -10.039062 10.125 -8.53125 11.21875 -7.40625 C 12.3125 -6.28125 13.738281 -5.71875 15.5 -5.71875 C 17.226562 -5.71875 18.613281 -6.269531 19.65625 -7.375 C 20.695312 -8.488281 21.21875 -10.007812 21.21875 -11.9375 L 21.21875 -28.40625 Z M 28.40625 -28.40625 " />
      </g>
    </g>
  </g>
  <g fill="#0c1a62" fill-opacity="1">
    <g transform="translate(625.011147, 141.823898)">
      <g>
        <path
          d="M 25.96875 -23.78125 L 10.796875 -5.71875 L 26.21875 -5.71875 L 26.21875 0 L 1.140625 0 L 1.140625 -4.625 L 16.359375 -22.6875 L 1.65625 -22.6875 L 1.65625 -28.40625 L 25.96875 -28.40625 Z M 25.96875 -23.78125 " />
      </g>
    </g>
  </g>
  <g fill="#0c1a62" fill-opacity="1">
    <g transform="translate(660.106053, 141.823898)">
      <g>
        <path
          d="M 28.40625 -28.40625 L 28.40625 -11.9375 C 28.40625 -8.175781 27.238281 -5.191406 24.90625 -2.984375 C 22.582031 -0.773438 19.429688 0.328125 15.453125 0.328125 C 11.453125 0.328125 8.269531 -0.773438 5.90625 -2.984375 C 3.539062 -5.191406 2.359375 -8.175781 2.359375 -11.9375 L 2.359375 -28.40625 L 9.578125 -28.40625 L 9.578125 -11.9375 C 9.578125 -10.039062 10.125 -8.53125 11.21875 -7.40625 C 12.3125 -6.28125 13.738281 -5.71875 15.5 -5.71875 C 17.226562 -5.71875 18.613281 -6.269531 19.65625 -7.375 C 20.695312 -8.488281 21.21875 -10.007812 21.21875 -11.9375 L 21.21875 -28.40625 Z M 28.40625 -28.40625 " />
      </g>
    </g>
  </g>
  <g fill="#0c1a62" fill-opacity="1">
    <g transform="translate(698.56831, 141.823898)">
      <g>
        <path
          d="M 34.046875 0 L 27.671875 0 L 27.640625 -18.46875 L 20.8125 -2.84375 L 16.109375 -2.84375 L 9.296875 -18.46875 L 9.296875 0 L 2.84375 0 L 2.84375 -28.4375 L 10.75 -28.4375 L 18.46875 -11.53125 L 26.171875 -28.4375 L 34.046875 -28.4375 Z M 34.046875 0 " />
      </g>
    </g>
  </g>
</svg>