<svg xmlns="http://www.w3.org/2000/svg" xmlns:xlink="http://www.w3.org/1999/xlink" width="500" zoomAndPan="magnify" viewBox="0 0 375 374.999991" height="500" preserveAspectRatio="xMidYMid meet" version="1.0"><defs><clipPath id="751a2b19e7"><path d="M 167.878906 27.578125 L 222.816406 27.578125 L 222.816406 82.515625 L 167.878906 82.515625 Z M 167.878906 27.578125 " clip-rule="nonzero"/></clipPath><clipPath id="e3ab87efc7"><path d="M 195.347656 27.578125 C 180.179688 27.578125 167.878906 39.878906 167.878906 55.046875 C 167.878906 70.21875 180.179688 82.515625 195.347656 82.515625 C 210.519531 82.515625 222.816406 70.21875 222.816406 55.046875 C 222.816406 39.878906 210.519531 27.578125 195.347656 27.578125 " clip-rule="nonzero"/></clipPath><clipPath id="18f19a2c0a"><path d="M 80.832031 79.640625 L 198 79.640625 L 198 196.972656 L 80.832031 196.972656 Z M 80.832031 79.640625 " clip-rule="nonzero"/></clipPath><clipPath id="24f9b202f2"><path d="M 139.378906 196.828125 C 107.144531 196.828125 80.832031 170.515625 80.832031 138.191406 C 80.832031 105.953125 107.144531 79.640625 139.378906 79.640625 C 171.703125 79.640625 197.929688 105.953125 197.929688 138.191406 C 198.019531 170.515625 171.703125 196.828125 139.378906 196.828125 M 139.378906 111.878906 C 124.917969 111.878906 113.066406 123.726562 113.066406 138.191406 C 113.066406 152.65625 124.917969 164.503906 139.378906 164.503906 C 153.84375 164.503906 165.691406 152.65625 165.691406 138.191406 C 165.691406 123.726562 153.929688 111.878906 139.378906 111.878906 " clip-rule="nonzero"/></clipPath></defs><path fill="#773fdb" d="M 361.355469 312.183594 L 280 221.394531 C 267.296875 241.132812 241.316406 265.953125 221.574219 278.65625 L 312.148438 361.320312 C 325.792969 374.964844 347.855469 374.964844 361.429688 361.320312 C 375 347.820312 375 325.757812 361.355469 312.183594 Z M 361.355469 312.183594 " fill-opacity="1" fill-rule="nonzero"/><path fill="#773fdb" d="M 278.691406 139.382812 C 278.691406 62.453125 216.277344 0.0351562 139.347656 0.0351562 C 62.414062 0.0351562 0 62.453125 0 139.382812 C 0 216.3125 62.414062 278.726562 139.347656 278.726562 C 216.277344 278.726562 278.691406 216.3125 278.691406 139.382812 Z M 139.347656 243.890625 C 81.71875 243.890625 34.835938 197.007812 34.835938 139.382812 C 34.835938 81.757812 81.71875 34.871094 139.347656 34.871094 C 196.972656 34.871094 243.855469 81.757812 243.855469 139.382812 C 243.855469 197.007812 196.972656 243.890625 139.347656 243.890625 Z M 139.347656 243.890625 " fill-opacity="1" fill-rule="nonzero"/><g clip-path="url(#751a2b19e7)"><g clip-path="url(#e3ab87efc7)"><path fill="#773fdb" d="M 167.878906 27.578125 L 222.816406 27.578125 L 222.816406 82.515625 L 167.878906 82.515625 Z M 167.878906 27.578125 " fill-opacity="1" fill-rule="nonzero"/></g></g><g clip-path="url(#18f19a2c0a)"><g clip-path="url(#24f9b202f2)"><path fill="#773fdb" d="M 80.832031 79.640625 L 198.164062 79.640625 L 198.164062 196.972656 L 80.832031 196.972656 Z M 80.832031 79.640625 " fill-opacity="1" fill-rule="nonzero"/></g></g></svg>